<svg width="24" height="29" viewBox="0 0 24 29" fill="none" xmlns="http://www.w3.org/2000/svg">
<path d="M19.4123 15.5796C19.4505 13.3648 20.5961 11.3028 22.5053 10.1191C21.3216 8.40072 19.3741 7.36972 17.274 7.29335C15.0592 7.06423 12.9208 8.62983 11.8135 8.62983C10.6679 8.62983 8.94956 7.33153 7.07849 7.36972C4.63463 7.44609 2.3817 8.82075 1.19796 10.9591C-1.32227 15.3504 0.548805 21.8038 2.99266 25.355C4.21459 27.1115 5.62745 29.0208 7.49853 28.9826C9.33142 28.9062 9.98057 27.837 12.1953 27.837C14.3719 27.837 15.021 28.9826 16.8921 28.9444C18.8396 28.9062 20.0615 27.1879 21.2452 25.4314C22.1235 24.2094 22.8108 22.8348 23.2309 21.3837C20.9016 20.3909 19.4123 18.0998 19.4123 15.5796Z" fill="white"/>
<path d="M15.8229 4.96407C16.8921 3.70396 17.4267 2.0238 17.274 0.381836C15.632 0.534577 14.1428 1.33647 13.0736 2.5584C12.0044 3.78032 11.4698 5.34592 11.5844 6.98789C13.2263 6.98789 14.7919 6.26237 15.8229 4.96407Z" fill="white"/>
</svg>
