<svg width="403" height="482" viewBox="0 0 403 482" fill="none" xmlns="http://www.w3.org/2000/svg">
<g clip-path="url(#clip0_0_1)">
<path d="M390.573 79H367.427C362.221 79 358 83.2207 358 88.4271V111.573C358 116.779 362.221 121 367.427 121H390.573C395.779 121 400 116.779 400 111.573V88.4271C400 83.2207 395.779 79 390.573 79Z" fill="#FD3832"/>
<path fill-rule="evenodd" clip-rule="evenodd" d="M369.638 107.761C369.219 107.634 368.836 107.408 368.522 107.101C368.208 106.795 367.972 106.418 367.834 106.001C367.049 103.848 366.816 94.8572 368.329 93.0824C368.833 92.505 369.544 92.1495 370.308 92.0931C374.366 91.6567 386.907 91.7149 388.347 92.2386C388.752 92.37 389.122 92.5914 389.43 92.8862C389.737 93.181 389.974 93.5415 390.122 93.9407C390.98 96.1666 391.009 104.255 390.006 106.394C389.739 106.95 389.293 107.401 388.74 107.674C387.227 108.43 371.646 108.416 369.638 107.761ZM376.083 103.542L383.357 99.7599L376.083 95.9483V103.542Z" fill="white"/>
</g>
<ellipse opacity="0.1" cx="199.977" cy="17.2569" rx="199.977" ry="17.2569" transform="matrix(-1 0 0 1 399.955 443.013)" fill="#01539D"/>
<path d="M136.341 59.0248C189.431 57.1976 227.904 100.543 233.588 149.167C239.375 197.791 252.165 230.68 306.575 255.043C345.149 272.3 383.825 345.185 313.681 408.122C243.638 471.059 119.185 461.01 49.0408 408.122C-21.002 355.133 -33.894 64.8109 136.341 59.0248Z" fill="url(#paint0_linear_0_1)"/>
<path d="M126.392 75.7743C152.481 72.3229 202.12 99.934 211.56 144.193C221.001 188.35 225.264 237.786 274.7 264.078C324.137 290.369 285.258 335.643 217.854 338.79C150.552 341.937 91.6756 305.494 72.693 255.348C53.8119 205.201 54.827 85.3163 126.392 75.7743Z" fill="url(#paint1_linear_0_1)"/>
<path d="M338.348 381.323C338.754 407.716 339.668 432.18 339.668 432.18L313.579 401.22L308.808 387.719L258.053 243.572C296.931 241.948 317.944 242.557 330.836 253.724C343.83 264.89 338.856 306.205 338.247 340.11C338.044 352.088 338.145 367.01 338.348 381.323Z" fill="url(#paint2_linear_0_1)"/>
<path d="M339.668 432.18L313.579 401.219L308.808 387.718C320.584 386.703 330.532 384.267 338.348 381.323C338.754 407.818 339.668 432.18 339.668 432.18Z" fill="url(#paint3_linear_0_1)"/>
<path d="M349.007 418.07C340.581 420.71 335.709 430.252 335.709 430.252C335.709 430.252 329.618 434.414 321.599 430.252C313.579 426.09 314.391 418.07 309.417 409.34C307.793 406.498 303.022 400.001 296.932 391.982C284.446 375.537 271.249 353.611 263.636 341.632C252.165 323.766 257.342 303.87 246.683 295.546C236.025 287.121 199.582 312.296 146.999 309.453C112.688 307.626 108.425 277.071 112.688 261.641C115.328 251.795 121.114 243.775 121.114 243.775C121.114 243.775 240.999 242.253 260.793 243.775C280.588 245.298 288.608 254.434 293.48 269.661C298.454 284.887 311.042 345.794 321.7 372.086C323.223 375.74 324.746 379.293 326.471 382.643C336.622 403.453 349.007 418.07 349.007 418.07Z" fill="url(#paint4_linear_0_1)"/>
<path d="M402.808 469.74C401.996 474.206 398.138 478.977 385.043 481.211C367.279 484.256 347.89 475.221 340.074 467.913C332.257 460.705 320.482 456.137 313.782 449.844C310.635 446.798 310.026 442.027 310.331 437.358C310.636 432.282 312.057 427.41 312.26 425.684C312.564 422.334 319.162 420.811 328.501 419.695C328.501 419.695 341.901 417.157 347.687 416.649C353.473 416.243 356.417 418.883 359.564 423.349C362.711 427.816 378.344 445.073 387.378 450.757C396.413 456.442 402.199 460.096 402.808 465.273C403.011 466.593 403.112 468.116 402.808 469.74Z" fill="url(#paint5_linear_0_1)"/>
<path d="M349.007 418.07C340.581 420.71 335.709 430.252 335.709 430.252C335.709 430.252 329.618 434.414 321.599 430.252C313.579 426.09 314.391 418.07 309.417 409.34C307.793 406.498 303.022 400.001 296.932 391.982C304.443 391.271 314.696 388.835 326.37 382.542C336.622 403.453 349.007 418.07 349.007 418.07Z" fill="url(#paint6_linear_0_1)"/>
<path d="M402.808 469.74C401.996 474.206 398.138 478.977 385.043 481.211C367.279 484.256 347.89 475.221 340.074 467.913C332.257 460.705 320.482 456.137 313.782 449.844C310.635 446.798 310.026 442.027 310.331 437.358C318.046 450.351 333.273 456.746 340.378 462.431C349.108 469.435 361.391 479.891 381.693 477.962C396.21 476.643 400.27 471.161 402.808 469.74Z" fill="url(#paint7_linear_0_1)"/>
<path d="M265.666 183.681L240.288 213.119L235.01 207.637L223.437 195.558C214.91 210.277 223.437 241.948 223.437 241.948C223.437 241.948 201.105 243.268 182.63 243.471C164.256 243.674 149.74 241.948 140.401 246.313C130.96 250.678 120.2 245.603 117.358 239.309C114.516 232.914 120.911 224.184 120.911 224.184C115.226 223.778 111.978 218.499 107.105 211.292C102.334 204.085 104.466 196.877 108.628 188.249C112.79 179.722 113.196 172.718 111.064 160.435C108.932 148.152 114.82 135.26 120.708 122.774C126.595 110.288 135.833 98.7158 141.822 92.9296C147.913 87.1435 186.487 86.5344 186.487 86.5344C186.487 86.5344 248.206 108.359 249.932 120.744C251.657 133.128 265.666 183.681 265.666 183.681Z" fill="url(#paint8_linear_0_1)"/>
<path d="M242.014 167.236C245.059 175.864 243.943 193.223 235.01 207.536L223.437 195.456C225.975 191.193 238.156 180.026 236.025 165.206C233.893 150.385 226.686 142.569 228.513 134.955C230.34 127.342 233.385 115.161 233.385 115.161L246.582 118.104C246.582 118.104 237.852 131.402 237.141 138.001C236.532 144.7 238.968 158.709 242.014 167.236Z" fill="url(#paint9_linear_0_1)"/>
<path d="M236.025 33.0379C237.243 38.215 237.243 43.4936 239.07 48.2646C240.796 53.0356 239.882 63.5928 236.025 70.8001C232.269 78.0074 231.254 87.0419 236.025 93.3356C240.796 99.7308 251.759 110.897 245.161 120.947C238.562 130.996 227.092 140.031 235.01 151.4C235.01 151.4 221.712 147.847 221.103 135.666C220.493 123.383 224.858 122.266 217.347 113.333C209.936 104.4 203.744 103.791 204.252 86.5344C204.556 72.9318 219.478 31.7182 227.802 21.5671C230.035 18.9278 236.025 33.0379 236.025 33.0379Z" fill="url(#paint10_linear_0_1)"/>
<path d="M213.185 83.5905C209.226 85.9252 204.658 100.035 201.815 101.964C198.973 103.893 188.213 103.284 180.599 87.9554C172.885 72.6272 180.599 53.5431 180.599 53.5431L213.185 83.5905Z" fill="url(#paint11_linear_0_1)"/>
<path d="M234.807 32.0226C234.807 32.0226 235.314 38.9253 234.807 43.0873C234.299 47.2493 232.472 51.0052 233.182 55.5732C233.791 60.1412 227.295 77.9057 221.813 83.7934C216.332 89.681 204.962 84.91 199.887 81.8646C194.811 78.8193 188.416 71.0029 186.69 61.3593C184.964 51.6143 208.211 13.5475 208.211 13.5475L226.178 8.26892L234.807 32.0226Z" fill="url(#paint12_linear_0_1)"/>
<path d="M219.58 3.90397C203.643 -2.89728 183.949 0.655617 174.001 11.2128C164.053 21.77 164.662 39.9405 160.805 45.6251C154.308 55.0657 162.835 67.1455 159.384 74.4544C153.496 86.5342 133.194 88.2599 131.773 104.705C131.773 104.705 139.995 89.9856 147.913 91.2037C155.831 92.4219 166.692 99.9337 177.351 93.5385C189.736 86.2297 180.295 66.7395 186.792 61.1564C186.792 61.1564 196.232 54.0506 198.567 45.5236C200.902 36.9967 204.455 30.8045 213.286 28.4697C222.118 26.135 223.539 14.3596 223.539 14.3596C223.539 14.3596 227.904 19.9428 228.208 23.1911C228.817 28.6727 236.126 32.9362 236.126 32.9362C236.126 32.9362 236.025 11.0098 219.58 3.90397Z" fill="url(#paint13_linear_0_1)"/>
<path d="M148.014 111.811C148.014 111.811 156.034 130.184 156.338 146.934C156.541 159.318 146.187 185.711 156.338 191.7C163.85 196.065 156.338 202.359 156.338 202.359L159.688 205.303C159.688 205.303 165.474 200.227 163.85 194.441C162.226 188.655 155.019 186.523 158.267 173.53C161.617 160.536 166.997 138.61 148.014 111.811Z" fill="url(#paint14_linear_0_1)"/>
<path d="M156.44 202.359C156.44 202.359 137.863 199.111 132.889 218.702L165.068 235.249C165.068 235.249 174.204 241.644 187.198 240.832C200.191 240.02 212.169 241.035 213.591 237.482C215.012 233.929 222.524 225.097 221.204 223.27C219.986 221.443 202.627 222.864 194.608 223.676C186.589 224.488 182.021 222.255 176.031 218.905C170.042 215.657 156.44 202.359 156.44 202.359Z" fill="url(#paint15_linear_0_1)"/>
<path d="M121.012 224.184C121.012 224.184 129.438 223.676 132.991 218.702L165.17 235.248C165.17 235.248 158.572 240.02 149.842 238.395C141.213 236.67 124.768 237.076 121.012 224.184Z" fill="url(#paint16_linear_0_1)"/>
<path d="M119.287 214.642C119.287 214.642 125.58 195.355 146.898 190.482C146.898 190.482 122.129 189.467 119.287 214.642Z" fill="url(#paint17_linear_0_1)"/>
<path d="M215.215 236.873H156.541C156.541 239.715 158.876 242.05 161.718 242.05H215.113V236.873H215.215Z" fill="url(#paint18_linear_0_1)"/>
<path d="M217.753 244.05H324.035C327.08 244.05 330.329 241.512 331.242 238.467L353.473 160.709C354.387 157.664 352.56 155.126 349.514 155.126H243.232C240.187 155.126 236.938 157.664 236.025 160.709L213.794 238.467C212.88 241.512 214.606 244.05 217.753 244.05Z" fill="url(#paint19_linear_0_1)"/>
<path d="M293.582 197.588C291.957 203.07 286.273 207.536 280.791 207.536C275.31 207.536 272.061 203.07 273.685 197.588C275.31 192.106 280.994 187.64 286.476 187.64C291.957 187.64 295.104 192.106 293.582 197.588Z" fill="white"/>
<path d="M349.75 194.875H330.25C329.353 194.875 328.625 195.603 328.625 196.5V209.5C328.625 210.397 329.353 211.125 330.25 211.125H349.75C350.647 211.125 351.375 210.397 351.375 209.5V196.5C351.375 195.603 350.647 194.875 349.75 194.875Z" fill="#EEF5FD"/>
<path d="M349.75 211.938H330.25C329.604 211.938 328.984 211.681 328.526 211.224C328.069 210.766 327.812 210.146 327.812 209.5V196.5C327.812 195.854 328.069 195.234 328.526 194.776C328.984 194.319 329.604 194.062 330.25 194.062H349.75C350.396 194.062 351.016 194.319 351.474 194.776C351.931 195.234 352.188 195.854 352.188 196.5V209.5C352.188 210.146 351.931 210.766 351.474 211.224C351.016 211.681 350.396 211.938 349.75 211.938ZM330.25 195.688C330.035 195.688 329.828 195.773 329.675 195.925C329.523 196.078 329.438 196.285 329.438 196.5V209.5C329.438 209.715 329.523 209.922 329.675 210.075C329.828 210.227 330.035 210.312 330.25 210.312H349.75C349.965 210.312 350.172 210.227 350.325 210.075C350.477 209.922 350.562 209.715 350.562 209.5V196.5C350.562 196.285 350.477 196.078 350.325 195.925C350.172 195.773 349.965 195.688 349.75 195.688H330.25Z" fill="#6D6DAA"/>
<path d="M350.912 210.629L340 198.938L329.088 210.629C329.239 210.785 329.419 210.91 329.619 210.995C329.818 211.08 330.033 211.124 330.25 211.125H349.75C349.967 211.124 350.182 211.08 350.381 210.995C350.581 210.91 350.761 210.785 350.912 210.629Z" fill="#FFC661"/>
<path d="M349.75 211.937H330.25C329.924 211.937 329.602 211.872 329.302 211.745C329.002 211.618 328.73 211.432 328.503 211.198C328.359 211.047 328.279 210.846 328.279 210.637C328.279 210.429 328.359 210.228 328.503 210.077L339.407 198.385C339.483 198.304 339.575 198.239 339.677 198.195C339.779 198.151 339.889 198.128 340 198.128C340.111 198.128 340.221 198.151 340.323 198.195C340.425 198.239 340.517 198.304 340.593 198.385L351.505 210.077C351.649 210.228 351.729 210.429 351.729 210.637C351.729 210.846 351.649 211.047 351.505 211.198C351.277 211.433 351.004 211.619 350.703 211.746C350.401 211.873 350.077 211.938 349.75 211.937ZM330.494 210.312H349.506L340 200.132L330.494 210.312Z" fill="#6D6DAA"/>
<path d="M340 203L350.814 195.281C350.52 195.022 350.142 194.878 349.75 194.875H330.25C329.858 194.878 329.48 195.022 329.186 195.281L340 203Z" fill="#FF9797"/>
<path d="M340 203.813C339.831 203.812 339.666 203.758 339.529 203.658L328.714 195.939C328.612 195.87 328.527 195.779 328.466 195.672C328.404 195.566 328.368 195.446 328.359 195.323C328.351 195.201 328.37 195.077 328.416 194.963C328.462 194.849 328.534 194.746 328.625 194.664C329.075 194.271 329.653 194.057 330.25 194.063H349.75C350.347 194.057 350.925 194.271 351.375 194.664C351.468 194.744 351.542 194.844 351.591 194.957C351.639 195.07 351.662 195.193 351.656 195.315C351.651 195.438 351.617 195.558 351.559 195.666C351.5 195.774 351.418 195.868 351.318 195.939L340.504 203.658C340.358 203.764 340.18 203.819 340 203.813ZM331.16 195.688L340 202.001L348.84 195.688H331.16Z" fill="#6D6DAA"/>
<defs>
<linearGradient id="paint0_linear_0_1" x1="352.59" y1="255.321" x2="0.365847" y2="255.321" gradientUnits="userSpaceOnUse">
<stop offset="0.00766284" stop-color="#33C7CA"/>
<stop offset="1" stop-color="#2AA7B5"/>
</linearGradient>
<linearGradient id="paint1_linear_0_1" x1="143.529" y1="314.502" x2="219.723" y2="122.929" gradientUnits="userSpaceOnUse">
<stop stop-color="#153F59"/>
<stop offset="1" stop-color="#206C9B"/>
</linearGradient>
<linearGradient id="paint2_linear_0_1" x1="258.005" y1="337.543" x2="339.67" y2="337.543" gradientUnits="userSpaceOnUse">
<stop stop-color="#192C54"/>
<stop offset="1" stop-color="#111B3E"/>
</linearGradient>
<linearGradient id="paint3_linear_0_1" x1="308.801" y1="406.752" x2="339.665" y2="406.752" gradientUnits="userSpaceOnUse">
<stop offset="0.00766284" stop-color="#FDCDAA"/>
<stop offset="1" stop-color="#FD8C75"/>
</linearGradient>
<linearGradient id="paint4_linear_0_1" x1="111.227" y1="337.604" x2="349.04" y2="337.604" gradientUnits="userSpaceOnUse">
<stop stop-color="#192C54"/>
<stop offset="1" stop-color="#2A3E6B"/>
</linearGradient>
<linearGradient id="paint5_linear_0_1" x1="310.344" y1="449.181" x2="403.002" y2="449.181" gradientUnits="userSpaceOnUse">
<stop stop-color="#192C54"/>
<stop offset="1" stop-color="#111B3E"/>
</linearGradient>
<linearGradient id="paint6_linear_0_1" x1="335.545" y1="400.014" x2="312.973" y2="413.083" gradientUnits="userSpaceOnUse">
<stop offset="0.00766284" stop-color="#FDCDAA"/>
<stop offset="1" stop-color="#FD8C75"/>
</linearGradient>
<linearGradient id="paint7_linear_0_1" x1="310.344" y1="459.587" x2="402.782" y2="459.587" gradientUnits="userSpaceOnUse">
<stop stop-color="white"/>
<stop offset="1" stop-color="#CDCDCD"/>
</linearGradient>
<linearGradient id="paint8_linear_0_1" x1="104.438" y1="167.283" x2="265.7" y2="167.283" gradientUnits="userSpaceOnUse">
<stop stop-color="#C0D9F4"/>
<stop offset="1" stop-color="#98C4F5"/>
</linearGradient>
<linearGradient id="paint9_linear_0_1" x1="223.996" y1="161.399" x2="239.755" y2="161.399" gradientUnits="userSpaceOnUse">
<stop stop-color="#86C3E1"/>
<stop offset="1" stop-color="#64A6DE"/>
</linearGradient>
<linearGradient id="paint10_linear_0_1" x1="204.203" y1="86.3676" x2="247.237" y2="86.3676" gradientUnits="userSpaceOnUse">
<stop stop-color="#C27701"/>
<stop offset="0.2552" stop-color="#A55A01"/>
<stop offset="0.5208" stop-color="#8E4300"/>
<stop offset="0.7712" stop-color="#803600"/>
<stop offset="0.9885" stop-color="#7B3100"/>
</linearGradient>
<linearGradient id="paint11_linear_0_1" x1="212.411" y1="78.5288" x2="180.56" y2="78.0066" gradientUnits="userSpaceOnUse">
<stop offset="0.00766284" stop-color="#FDCDAA"/>
<stop offset="1" stop-color="#FD8C75"/>
</linearGradient>
<linearGradient id="paint12_linear_0_1" x1="204.896" y1="15.6518" x2="218.44" y2="87.6812" gradientUnits="userSpaceOnUse">
<stop offset="0.00766284" stop-color="#FDCDAA"/>
<stop offset="1" stop-color="#FD8C75"/>
</linearGradient>
<linearGradient id="paint13_linear_0_1" x1="131.665" y1="52.6319" x2="236.053" y2="52.6319" gradientUnits="userSpaceOnUse">
<stop stop-color="#C27701"/>
<stop offset="0.2552" stop-color="#A55A01"/>
<stop offset="0.5208" stop-color="#8E4300"/>
<stop offset="0.7712" stop-color="#803600"/>
<stop offset="0.9885" stop-color="#7B3100"/>
</linearGradient>
<linearGradient id="paint14_linear_0_1" x1="159.67" y1="158.543" x2="152.716" y2="158.543" gradientUnits="userSpaceOnUse">
<stop stop-color="#86C3E1"/>
<stop offset="1" stop-color="#64A6DE"/>
</linearGradient>
<linearGradient id="paint15_linear_0_1" x1="180.592" y1="213.013" x2="171.177" y2="235.311" gradientUnits="userSpaceOnUse">
<stop offset="0.00766284" stop-color="#FDCDAA"/>
<stop offset="1" stop-color="#FD8C75"/>
</linearGradient>
<linearGradient id="paint16_linear_0_1" x1="136.748" y1="237.665" x2="146.514" y2="225.367" gradientUnits="userSpaceOnUse">
<stop stop-color="#86C3E1" stop-opacity="0"/>
<stop offset="1" stop-color="#64A6DE"/>
</linearGradient>
<linearGradient id="paint17_linear_0_1" x1="119.306" y1="202.572" x2="146.901" y2="202.572" gradientUnits="userSpaceOnUse">
<stop stop-color="#86C3E1"/>
<stop offset="1" stop-color="#64A6DE"/>
</linearGradient>
<linearGradient id="paint18_linear_0_1" x1="214.073" y1="239.452" x2="156.656" y2="239.452" gradientUnits="userSpaceOnUse">
<stop stop-color="white"/>
<stop offset="1" stop-color="#CDCDCD"/>
</linearGradient>
<linearGradient id="paint19_linear_0_1" x1="351.02" y1="162.021" x2="209.611" y2="240.765" gradientUnits="userSpaceOnUse">
<stop stop-color="white"/>
<stop offset="1" stop-color="#CDCDCD"/>
</linearGradient>
<clipPath id="clip0_0_1">
<rect width="42" height="42" fill="white" transform="translate(358 79)"/>
</clipPath>
</defs>
</svg>
