<svg width="27" height="30" viewBox="0 0 27 30" fill="none" xmlns="http://www.w3.org/2000/svg">
<path d="M0.452895 0.679382C0.113223 1.01905 0 1.58517 0 2.26452V27.287C0 27.9663 0.226448 28.5325 0.566119 28.8721L0.679344 28.9853L14.7191 14.9456V14.7191L0.452895 0.679382Z" fill="url(#paint0_linear_1_4611)"/>
<path d="M19.2481 19.701L14.6059 15.0588V14.7191L19.2481 10.077L19.3613 10.1902L24.9093 13.3605C26.4944 14.2662 26.4944 15.7382 24.9093 16.6439L19.2481 19.701Z" fill="url(#paint1_linear_1_4611)"/>
<path d="M19.3613 19.5877L14.6059 14.8323L0.452881 28.9853C1.019 29.5514 1.81157 29.5514 2.83058 29.0985L19.3613 19.5877Z" fill="url(#paint2_linear_1_4611)"/>
<path d="M19.3613 10.077L2.83058 0.679385C1.81157 0.113266 1.019 0.22649 0.452881 0.792609L14.6059 14.8324L19.3613 10.077Z" fill="url(#paint3_linear_1_4611)"/>
<path opacity="0.2" d="M19.248 19.4745L2.83058 28.7589C1.92479 29.325 1.13222 29.2118 0.566105 28.7589L0.452881 28.8721L0.566105 28.9854C1.13222 29.4382 1.92479 29.5515 2.83058 28.9854L19.248 19.4745Z" fill="black"/>
<path opacity="0.12" d="M0.452895 28.7589C0.113223 28.4192 0 27.8531 0 27.1737V27.287C0 27.9663 0.226448 28.5324 0.566119 28.8721V28.7589H0.452895ZM24.9093 16.3042L19.2481 19.4745L19.3613 19.5877L24.9093 16.4175C25.7018 15.9646 26.0415 15.3985 26.0415 14.8323C26.0415 15.3985 25.5886 15.8514 24.9093 16.3042Z" fill="black"/>
<path opacity="0.25" d="M2.8306 0.792595L24.9093 13.3604C25.5886 13.8133 26.0415 14.2662 26.0415 14.8324C26.0415 14.2662 25.7018 13.7001 24.9093 13.2472L2.8306 0.679372C1.24546 -0.226419 0 0.452923 0 2.26451V2.37773C0 0.679372 1.24546 -0.113195 2.8306 0.792595Z" fill="white"/>
<defs>
<linearGradient id="paint0_linear_1_4611" x1="13.3604" y1="2.04939" x2="-5.64195" y2="21.0506" gradientUnits="userSpaceOnUse">
<stop stop-color="#00A0FF"/>
<stop offset="0.007" stop-color="#00A1FF"/>
<stop offset="0.26" stop-color="#00BEFF"/>
<stop offset="0.512" stop-color="#00D2FF"/>
<stop offset="0.76" stop-color="#00DFFF"/>
<stop offset="1" stop-color="#00E3FF"/>
</linearGradient>
<linearGradient id="paint1_linear_1_4611" x1="26.9858" y1="14.8335" x2="-0.410984" y2="14.8335" gradientUnits="userSpaceOnUse">
<stop stop-color="#FFE000"/>
<stop offset="0.409" stop-color="#FFBD00"/>
<stop offset="0.775" stop-color="#FFA500"/>
<stop offset="1" stop-color="#FF9C00"/>
</linearGradient>
<linearGradient id="paint2_linear_1_4611" x1="16.7877" y1="17.432" x2="-8.9798" y2="43.1994" gradientUnits="userSpaceOnUse">
<stop stop-color="#FF3A44"/>
<stop offset="1" stop-color="#C31162"/>
</linearGradient>
<linearGradient id="paint3_linear_1_4611" x1="-3.06046" y1="-7.61313" x2="8.44648" y2="3.89381" gradientUnits="userSpaceOnUse">
<stop stop-color="#32A071"/>
<stop offset="0.069" stop-color="#2DA771"/>
<stop offset="0.476" stop-color="#15CF74"/>
<stop offset="0.801" stop-color="#06E775"/>
<stop offset="1" stop-color="#00F076"/>
</linearGradient>
</defs>
</svg>
