<svg   viewBox="0 0 418 379" fill="none" xmlns="http://www.w3.org/2000/svg">
<path opacity="0.42" d="M84.0388 364.255H310.105C360.421 329.564 393.392 272.224 393.392 207.429C393.392 101.492 305.517 0.285156 197 0.285156C88.4827 0.285156 0.608032 101.348 0.608032 207.429C0.751384 272.224 33.7223 329.564 84.0388 364.255Z" fill="#33C7CA"/>
<path d="M414 370.829C414 366.385 321.395 362.658 207 362.658C92.6053 362.658 0 366.242 0 370.829C0 375.273 92.6053 379 207 379C321.395 379 414 375.273 414 370.829Z" fill="#153F59"/>
<path d="M129.625 272.633H120.163V362.658H129.625V272.633Z" fill="#DF615C"/>
<path d="M129.625 272.633H120.163V285.248H129.625V272.633Z" fill="#CB3F39"/>
<path d="M165.749 362.801H86.7625C83.7521 362.801 81.3151 365.238 81.3151 368.249V371.116H171.197V368.249C171.197 365.238 168.76 362.801 165.749 362.801Z" fill="#DF615C"/>
<path d="M102.531 272.776H167.756C143.96 264.318 153.134 183.898 157.578 153.507C158.438 147.343 153.708 141.896 147.544 141.896H104.108C95.2202 141.896 87.6226 148.49 86.4758 157.235C82.6053 184.902 76.5845 242.242 88.6261 264.462C91.2064 269.622 96.6537 272.776 102.531 272.776Z" fill="#DF615C"/>
<path d="M326.877 91.7227H248.893C244.879 91.7227 241.582 95.0197 241.582 99.0336V134.155C241.582 138.169 244.879 141.466 248.893 141.466H254.341V149.923C254.341 151.07 255.774 151.787 256.634 150.927L267.242 141.466H327.02C331.034 141.466 334.331 138.169 334.331 134.155V99.0336C334.044 94.8764 330.891 91.7227 326.877 91.7227Z" fill="#00E3FF"/>
<path d="M271.973 117.096C271.973 118.816 270.539 120.25 268.819 120.25C267.099 120.25 265.666 118.816 265.666 117.096C265.666 115.376 267.099 113.942 268.819 113.942C270.539 113.799 271.973 115.232 271.973 117.096Z" fill="white"/>
<path d="M291.612 117.096C291.612 118.816 290.179 120.25 288.458 120.25C286.738 120.25 285.305 118.816 285.305 117.096C285.305 115.376 286.738 113.942 288.458 113.942C290.179 113.799 291.612 115.232 291.612 117.096Z" fill="white"/>
<path d="M306.807 120.25C308.549 120.25 309.961 118.838 309.961 117.096C309.961 115.354 308.549 113.942 306.807 113.942C305.066 113.942 303.654 115.354 303.654 117.096C303.654 118.838 305.066 120.25 306.807 120.25Z" fill="white"/>
<path d="M71.2805 186.192C71.2805 177.591 65.2597 168.99 57.6621 168.99C50.2078 168.99 44.0436 177.591 44.0436 186.192C44.0436 194.793 50.0644 201.817 57.6621 201.817C65.1164 201.674 71.2805 194.793 71.2805 186.192Z" fill="#059C59"/>
<path opacity="0.25" d="M57.6621 168.846C56.5153 168.846 55.2251 169.133 54.2217 169.563C60.0991 171.713 64.2563 178.881 64.2563 186.192C64.2563 193.359 59.9558 199.523 54.2217 201.244C55.3685 201.53 56.5153 201.817 57.6621 201.817C65.1164 201.817 71.2805 194.793 71.2805 186.192C71.2805 177.591 65.1164 168.846 57.6621 168.846Z" fill="#476488"/>
<path d="M42.18 196.37L44.617 218.446C44.9037 221.17 47.1974 223.32 50.0644 223.32H64.1129C66.8366 223.32 69.2735 221.17 69.5602 218.446L71.9972 196.37C72.1406 195.223 71.1371 194.076 69.9903 194.076H44.3303C43.0401 194.076 42.0367 195.08 42.18 196.37Z" fill="#D3E3EB"/>
<path d="M44.187 197.373H69.8469C70.707 197.373 71.2804 197.803 71.5671 198.52L71.8538 196.37C71.9972 195.223 70.9937 194.076 69.8469 194.076H44.187C43.0401 194.076 42.0367 195.08 42.18 196.37L42.4667 198.52C42.7534 197.803 43.4702 197.373 44.187 197.373Z" fill="#B0C4CB"/>
<path d="M69.847 194.076H60.9592C62.106 194.076 63.1095 195.08 62.9661 196.37L60.5292 218.446C60.2425 221.17 57.9488 223.32 55.0818 223.32H63.9696C66.6933 223.32 69.1303 221.17 69.417 218.446L71.8539 196.37C71.9973 195.08 71.1372 194.076 69.847 194.076Z" fill="#B0C4CB"/>
<path d="M182.378 349.469L181.518 355.777L186.392 361.941L198.577 355.92L200.01 350.186L184.672 347.893L182.378 349.469Z" fill="#E3BD78"/>
<path d="M192.269 369.969L193.56 368.392C193.846 368.105 194.276 368.105 194.42 368.392L195.71 369.826C196.283 370.399 197 370.829 197.717 370.829L226.244 370.399C226.817 369.826 226.961 368.822 226.244 368.249C222.087 364.091 199.58 356.781 198.434 356.064C197.287 355.49 190.406 360.794 181.375 355.92C181.375 355.92 179.941 363.088 179.654 367.675C179.511 369.539 181.088 371.116 182.951 371.116L190.262 370.972C191.123 370.829 191.839 370.542 192.269 369.969Z" fill="#2C3C4D"/>
<path d="M130.055 241.812C130.055 241.812 118.156 254.857 139.946 269.193C155.141 279.227 167.183 276.073 176.787 282.238C179.081 283.671 180.801 285.821 180.945 288.402L181.375 349.613L182.521 350.186C188.256 353.053 194.993 353.053 200.87 350.33L209.472 280.374C209.758 275.5 207.178 271.486 204.168 267.759C187.539 246.686 158.152 239.519 150.697 238.229C140.949 236.795 130.055 241.812 130.055 241.812Z" fill="#2C3C4D"/>
<path d="M135.215 349.469L134.212 355.777L138.943 362.084L151.271 356.207L152.704 350.33L137.509 347.893L135.215 349.469Z" fill="#E3BD78"/>
<path d="M144.82 370.112L146.11 368.535C146.397 368.249 146.827 368.249 146.97 368.535L148.26 370.112C148.834 370.686 149.551 371.116 150.267 371.116L178.794 370.972C179.368 370.399 179.511 369.539 178.938 368.822C174.78 364.522 152.418 356.924 151.271 356.35C150.124 355.777 143.243 360.938 134.212 355.92C134.212 355.92 132.635 363.088 132.348 367.675C132.205 369.539 133.638 371.116 135.645 371.116H142.956C143.673 370.972 144.39 370.686 144.82 370.112Z" fill="#2C3C4D"/>
<path d="M93.93 230.488C93.93 230.488 79.5948 246.543 100.381 264.605C115.003 277.22 128.048 271.916 137.222 279.657C139.373 281.521 140.806 283.958 140.663 286.681L134.069 349.039L134.499 349.326C140.233 353.053 147.4 353.483 153.708 350.616L169.906 284.961C170.91 279.944 168.76 275.357 166.179 270.913C151.701 246.4 129.195 231.634 121.454 229.341C111.562 226.187 93.93 230.488 93.93 230.488Z" fill="#2C3C4D"/>
<path d="M173.204 280.374C172.057 279.944 171.053 279.514 169.906 279.227C169.333 276.36 167.9 273.493 166.323 270.769C159.155 258.584 149.981 248.837 141.666 241.812C146.827 240.952 149.551 239.805 150.984 238.372C153.851 238.802 159.585 240.092 166.609 242.529C173.49 254.427 173.49 273.636 173.204 280.374Z" fill="#1F2E40"/>
<path d="M132.635 145.767C132.635 145.767 111.992 143.043 103.248 159.098C94.6468 175.297 81.7451 238.515 93.0699 240.379C98.0872 241.239 111.276 244.536 126.041 243.533C146.253 242.099 150.697 240.235 152.131 236.365L165.033 177.447C165.319 169.276 161.735 161.535 155.285 156.661C144.963 148.777 132.635 145.767 132.635 145.767Z" fill="#FFC000"/>
<path d="M164.889 172.287C164.889 172.287 165.176 207.838 176.357 209.988C187.539 212.138 217.213 211.422 217.213 211.422V222.746H153.421L164.889 172.287Z" fill="#B0C4CB"/>
<path d="M149.551 156.088L152.131 143.473L135.789 131.001L132.635 145.766C132.635 145.91 137.796 168.559 149.551 156.088Z" fill="#D4904F"/>
<path d="M170.337 119.677C170.337 119.677 161.879 123.834 149.264 116.236C149.264 116.236 146.397 121.397 137.939 126.127C137.939 126.127 133.639 118.816 131.058 124.264C130.341 125.984 129.911 127.418 129.911 128.708C122.027 118.53 127.618 105.198 134.929 98.0304C141.81 91.1495 156.861 93.8732 166.179 97.7437C176.071 101.758 177.934 94.7333 177.934 94.7333C190.549 112.366 170.337 119.677 170.337 119.677Z" fill="#2C3C4D"/>
<path d="M138.082 125.984C138.082 125.984 133.782 118.673 131.201 124.12C128.191 130.715 131.632 134.872 135.645 134.872C135.645 134.872 138.943 152.074 154.711 150.927C170.48 149.78 172.774 124.264 170.193 119.533C170.193 119.533 161.735 123.69 149.12 116.093C149.264 116.093 146.397 121.397 138.082 125.984Z" fill="#E3BD78"/>
<path d="M275.27 166.266H209.185C205.888 166.266 203.164 168.56 202.447 171.713L193.703 214.862H273.837L282.008 174.437C282.868 170.28 279.571 166.266 275.27 166.266Z" fill="#D3E3EB"/>
<path d="M273.407 214.862H164.172C162.309 214.862 160.875 216.296 160.875 218.159V219.163C160.875 221.026 162.309 222.46 164.172 222.46H273.407C275.27 222.46 276.704 221.026 276.704 219.163V218.159C276.704 216.439 275.27 214.862 273.407 214.862Z" fill="#8BA6AF"/>
<path d="M273.407 214.862H192.699C194.563 214.862 195.997 216.296 195.997 218.159V219.163C195.997 221.026 194.563 222.46 192.699 222.46H273.407C275.27 222.46 276.704 221.026 276.704 219.163V218.159C276.704 216.439 275.27 214.862 273.407 214.862Z" fill="#B0C4CB"/>
<path d="M167.756 212.569C154.855 211.135 118.73 207.408 112.566 206.691C104.825 205.831 121.74 174.437 123.604 163.686C125.467 152.934 117.296 152.504 117.296 152.504C112.709 151.931 107.548 152.504 103.248 158.955C94.5034 172.287 84.6122 211.278 89.7728 220.883C90.3462 222.03 91.6364 222.746 92.7832 222.746H167.613V212.569H167.756Z" fill="#FFC000"/>
<path d="M167.756 212.568C167.756 212.568 121.31 209.415 111.276 207.981C103.535 206.978 119.733 174.723 121.597 163.972C123.461 153.221 115.146 153.651 115.146 153.651C112.996 153.364 109.985 153.651 107.835 154.367C110.989 152.361 114.143 152.217 117.296 152.504C117.296 152.504 125.467 152.934 123.604 163.685C121.74 174.437 107.262 205.257 112.136 206.404C118.157 207.981 154.855 211.135 167.756 212.568Z" fill="#E7991F"/>
<path d="M167.756 223.033H185.102C186.392 223.033 187.252 221.6 186.535 220.453C184.958 218.016 182.378 214.432 180.515 213.859C179.368 213.572 170.91 213.859 167.9 214.145V223.033H167.756Z" fill="#E3BD78"/>
<path opacity="0.67" d="M170.337 119.677C170.337 119.677 168.903 120.393 166.466 120.68C166.323 121.827 165.893 124.12 165.606 126.271C165.319 129.281 166.896 138.742 165.893 138.886C164.889 139.029 163.026 138.742 163.026 138.742C163.026 138.742 161.592 152.361 147.974 150.21C147.83 150.21 147.687 150.21 147.687 150.21C149.694 150.927 152.131 151.357 154.998 151.071C170.623 149.78 172.917 124.264 170.337 119.677Z" fill="#D4904F"/>
<path d="M320.713 222.89H36.0159C32.8621 222.89 30.2818 225.47 30.2818 228.624V230.487C30.2818 233.641 32.8621 236.221 36.0159 236.221H320.713C323.866 236.221 326.447 233.641 326.447 230.487V228.624C326.59 225.47 324.01 222.89 320.713 222.89Z" fill="#5D8AC8"/>
<path d="M320.713 222.89H36.0159C32.8621 222.89 30.2818 225.47 30.2818 228.624V230.487C30.2818 231.061 30.4252 231.634 30.5685 232.207C31.2853 229.914 33.4355 228.194 36.0159 228.194H320.713C323.293 228.194 325.443 229.914 326.16 232.207C326.303 231.634 326.447 231.061 326.447 230.487V228.624C326.59 225.47 324.01 222.89 320.713 222.89Z" fill="#4772A6"/>
<path d="M126.041 370.542H116.58L50.3511 236.508H59.8123L126.041 370.542Z" fill="#476488"/>
<path d="M21.2507 370.542H30.8552L96.9404 236.508H87.4792L21.2507 370.542Z" fill="#476488"/>
<path d="M331.034 370.542H321.429L255.344 236.508H264.805L331.034 370.542Z" fill="#476488"/>
<path d="M226.244 370.542H235.705L301.934 236.508H292.472L226.244 370.542Z" fill="#476488"/>
<path d="M62.3926 241.812L59.8123 236.508H50.3511L52.9314 241.812H62.3926Z" fill="#293951"/>
<path d="M94.36 241.812L96.9403 236.508H87.4791L84.8988 241.812H94.36Z" fill="#293951"/>
<path d="M267.386 241.812L264.805 236.508H255.344L257.925 241.812H267.386Z" fill="#293951"/>
<path d="M299.353 241.812L301.933 236.508H292.472L289.892 241.812H299.353Z" fill="#293951"/>
<path d="M383.451 318.344C383.451 318.344 405.24 307.593 399.363 291.107C393.485 274.765 389.758 274.048 401.083 264.874C412.408 255.699 428.75 232.476 408.107 230.756C387.321 229.036 388.468 256.559 371.123 260.43C353.777 264.157 344.459 336.263 383.451 318.344Z" fill="#18BD9F"/>
<path opacity="0.25" d="M366.249 319.921C370.406 321.928 375.997 321.641 383.451 318.344C383.451 318.344 405.24 307.593 399.363 291.107C393.485 274.765 389.758 274.048 401.083 264.874C412.408 255.699 428.75 232.476 408.107 230.756C406.1 230.613 404.237 230.756 402.517 231.043C408.394 233.48 414.128 238.21 406.674 247.098C394.202 261.863 387.465 267.167 388.898 276.772C390.332 286.09 389.472 307.306 366.249 319.921Z" fill="#476488"/>
<path d="M346.466 317.771C346.466 317.771 327.257 317.054 328.404 303.292C329.407 289.53 329.981 288.957 317.939 284.656C296.723 277.059 313.495 236.203 330.841 261.863C342.882 279.639 348.043 275.625 355.927 277.059C363.668 278.492 380.727 323.935 346.466 317.771Z" fill="#0BE6D8"/>
<path opacity="0.29" d="M355.927 277.059C348.043 275.625 342.882 279.639 330.841 261.863C321.81 248.388 312.922 253.262 309.481 261.863C314.642 260.287 322.383 259.426 323.243 267.598C324.533 278.349 349.62 295.981 349.19 318.057C349.477 318.057 349.907 318.057 350.193 318.201C353.92 308.596 358.651 295.981 362.808 285.373C360.515 280.786 357.934 277.489 355.927 277.059Z" fill="#476488"/>
<path d="M350.91 317.197C350.91 317.197 327.114 293.974 335.285 289.961C343.312 286.09 359.368 298.848 350.48 284.943C341.592 271.038 331.271 249.535 343.599 252.976C355.927 256.416 356.787 260.143 355.211 243.945C353.204 223.015 364.815 212.264 375.853 219.145C386.891 226.026 366.392 271.898 373.99 267.024C381.587 262.007 387.895 257.85 389.472 263.871C391.049 269.891 367.826 293.401 376.427 289.531C387.178 284.513 388.755 293.401 385.314 298.992C381.731 304.439 367.682 337.123 350.91 317.197Z" fill="#30BB89"/>
<path opacity="0.48" d="M385.171 298.848C388.612 293.401 387.035 284.513 376.283 289.387C367.682 293.401 390.905 269.748 389.328 263.727C387.751 257.706 381.444 261.863 373.846 266.881C366.249 271.898 386.605 225.882 375.71 219.001C370.549 215.847 365.389 216.564 361.375 220.148C367.109 221.582 371.553 226.169 368.399 238.497C361.661 264.587 357.648 286.377 369.832 280.069C381.301 274.048 356.501 301.715 356.214 321.784C370.693 330.099 382.161 303.865 385.171 298.848Z" fill="#2C3C4D"/>
<path d="M334.425 319.921L339.012 361.636C339.585 366.797 344.029 370.811 349.19 370.811H375.71C381.014 370.811 385.314 366.94 385.888 361.636L390.475 319.921C390.762 317.627 388.898 315.62 386.605 315.62H338.008C336.001 315.62 334.281 317.627 334.425 319.921Z" fill="#D3E3EB"/>
<path d="M386.891 315.62H370.119C372.413 315.62 374.133 317.627 373.99 319.921L369.402 361.636C368.829 366.797 364.385 370.811 359.224 370.811H375.997C381.301 370.811 385.601 366.94 386.175 361.636L390.762 319.921C390.905 317.627 389.185 315.62 386.891 315.62Z" fill="#B0C4CB"/>
</svg>
